<!DOCTYPE svg PUBLIC "-//W3C//DTD SVG 1.1//EN" "http://www.w3.org/Graphics/SVG/1.1/DTD/svg11.dtd">
<!-- Uploaded to: SVG Repo, www.svgrepo.com, Transformed by: SVG Repo Mixer Tools -->
<svg fill="#067c89" height="800px" width="800px" version="1.1" id="Capa_1" xmlns="http://www.w3.org/2000/svg" xmlns:xlink="http://www.w3.org/1999/xlink" viewBox="0 0 612 612" xml:space="preserve">
<g id="SVGRepo_bgCarrier" stroke-width="0"/>
<g id="SVGRepo_tracerCarrier" stroke-linecap="round" stroke-linejoin="round"/>
<g id="SVGRepo_iconCarrier"> <g> <g> <path d="M600.195,3.203c-27.612-27.612-229.2,129.21-343.928,243.94c-27.811,27.809-47.495,50.998-61.13,70.498 c18.725,5.797,36.292,16.375,51.568,31.655c6.546,6.546,12.677,13.948,18.225,21.996c8.543,12.401,14.531,25.428,18.065,38.877 c20.061-13.681,44.126-33.916,73.261-63.042C470.985,232.402,627.807,30.815,600.195,3.203z"/> <path d="M93.801,364.184c-105.658,61.408-10.941,144.218-85.2,218.472c53.607,53.611,138.564,26.071,185.785-21.154 c43.828-43.819,79.004-106.442,38.846-164.758C199.203,347.336,145.419,334.186,93.801,364.184z"/> </g> </g> </g>
</svg>