<svg width="500" height="500" xmlns="http://www.w3.org/2000/svg">
  <path fill="#B2D0D0" stroke="#B2D0D0" d="M205.5 84q1.5 1-1 2-1.5-1 1-2ZM203.5 87l.5 1.5h-1l.5-1.5ZM206.5 87l.5 1.5h-1l.5-1.5ZM207.5 91v1-1ZM208.5 95v1-1ZM209.5 98v1-1ZM196.5 101l.5 2.5h-1l.5-2.5ZM210.5 101v1-1ZM198.5 104v1-1ZM211.5 104v1-1ZM203.5 105v1-1ZM199.5 106v1-1ZM212.5 107v1-1ZM200.5 108v1-1ZM201.5 110v1-1ZM204.5 110v1-1ZM213.5 110v1-1ZM162.5 112q2.5 1 1 2-2.5-1-1-2ZM202.5 112v1-1ZM214.5 112v1-1ZM196.5 113l.5 1.5h-1l.5-1.5ZM203.5 114v1-1ZM205.5 114l.5 1.5q-1 2.5-2 1l1.5-2.5ZM162.5 115l.5 2.5h-1l.5-2.5ZM164.5 115v1-1ZM215.5 115v1-1ZM154.5 116l1.5.5-1.5.5v-1ZM165.5 117v1-1ZM216.5 117v1-1ZM156.5 118v1-1ZM205.5 118l1.5.5-1.5.5v-1ZM193.5 119v1-1ZM197.5 119v1-1ZM217.5 119v1-1ZM157.5 120v1-1ZM167.5 120v1-1ZM206.5 120l1.5 2.5h-1l-.5-2.5ZM163.5 121v1-1ZM218.5 121v1-1ZM195.5 122v1-1ZM155.5 123l.5 1.5h-1l.5-1.5ZM159.5 123v1-1ZM169.5 123q2.5 1 1 2-2.5-1-1-2ZM198.5 123v1-1ZM219.5 123v1-1ZM164.5 124v1-1ZM196.5 124v1-1ZM199.5 125v1-1ZM165.5 126v1-1ZM156.5 127v1-1ZM162.5 127v1-1ZM198.5 127v1-1ZM166.5 128v1-1ZM193.5 128v1-1ZM200.5 128v1-1ZM222.5 129v1-1ZM153.5 130q1.5 1-1 2-1.5-1 1-2ZM157.5 130v1-1ZM175.5 130l6.5 6.5-.5.5-6.5-6.5.5-.5ZM201.5 130v1-1ZM168.5 131v1-1ZM223.5 131v1-1ZM158.5 132v1-1ZM194.5 132v1-1ZM201.5 132v1-1ZM155.5 133q2.5 1 1 2-2.5-1-1-2ZM224.5 133v1-1ZM159.5 134v1-1ZM170.5 134q2.5 1 1 2-2.5-1-1-2ZM153.5 135l.5 1.5h-1l.5-1.5ZM195.5 135v1-1ZM203.5 135v1-1ZM225.5 135v1-1ZM160.5 136v1-1ZM158.5 137q2.5 1 1 2-2.5-1-1-2ZM196.5 137v1-1ZM226.5 137v1-1ZM151.5 138l3.5 3.5-.5.5-2-2-.5.5-.5 1.5-.5-1.5 1-1-.5-1.5ZM154.5 138v1-1ZM161.5 138v1-1ZM173.5 138l2.5 2.5-.5.5-2.5-2.5.5-.5ZM197.5 140v1-1ZM163.5 141v1-1ZM193.5 141v1-1ZM188.5 142l4.5 4.5-.5.5-4.5-4.5.5-.5ZM198.5 142v1-1ZM229.5 142v1-1ZM157.5 144v1-1ZM165.5 144v1-1ZM194.5 144v1-1ZM198.5 144l2.5 1.5-1.5.5q-2.5-1-1-2ZM230.5 144v1-1ZM153.5 146v1-1ZM201.5 147v1-1ZM154.5 148v1-1ZM233.5 149v1-1ZM197.5 150v1-1ZM235.5 152v1-1ZM157.5 153q2.5 1 1 2-2.5-1-1-2ZM152.5 154l.5 1.5h-1l.5-1.5ZM236.5 154v1-1ZM160.5 157v1-1ZM238.5 157v1-1ZM153.5 158v1-1ZM154.5 160v1-1ZM240.5 160v1-1ZM163.5 161l7.5 7.5-.5.5-3-3-1.5.5 1-1-4-4 .5-.5ZM155.5 162v1-1ZM162.5 163v1-1ZM242.5 163v1-1ZM158.5 166q2.5 1 1 2-2.5-1-1-2ZM244.5 166v1-1ZM246.5 169v1-1ZM163.5 171l3.5 3.5-.5.5-3.5-3.5.5-.5ZM213.5 171l13 10 13.5 8.5-1.5-.5-8-3-9-7-.5.5 7.5 7.5 4.5 3.5-1.5-.5-7-2-7.5-6.5-2-3V176h1.5l4 3 .5-.5-3.5-3.5-4.5-3.5.5-.5ZM248.5 172v1-1ZM289.5 172l1.5.5-1.5.5v-1ZM296.5 172l1.5.5-1.5.5v-1ZM158.5 173l1.5.5-1.5.5v-1ZM286.5 173v1-1ZM301.5 173v1-1ZM161.5 174v1-1ZM283.5 174v1-1ZM304.5 174v1-1ZM159.5 175v1-1ZM163.5 175v1-1ZM250.5 175q2.5 1 1 2-2.5-1-1-2ZM281.5 175v1-1ZM291.5 175l9 1 11 7h4l1-1h9l1-1h6v1l-10 1-1 1h-4l-1 1h-4l-2.5 1q1.12-2.67-1.5-2l-3 1-5-5h-5l-4 6h-6l-6.5 4.5-2.5 4.5-.5-2.5 5-9 4-4-1.5-.5-4 3-.5-.5 3.5-3.5 9-3ZM306.5 175v1-1ZM165.5 176v1-1ZM169.5 176q3 1.5 0 3v-3Z" />
  <path fill="#B2D0D0" stroke="#B2D0D0" d="M308.5 176q2.5 1 1 2-2.5-1-1-2ZM167.5 177v1-1ZM338.5 177l4.5.5-4.5.5v-1ZM348.5 177v1-1ZM277.5 178q1.5 1-1 2-1.5-1 1-2ZM326.5 178l3.5.5-3.5.5v-1ZM172.5 179l2.5 1.5-1.5-.5q-2.37-.13-1-1ZM253.5 179v1-1ZM312.5 179l4.5.5-4.5.5v-1ZM348.5 179v1-1ZM334.5 180l2.5.5-2.5.5v-1ZM345.5 180v1-1ZM342.5 181v1-1ZM338.5 182v1-1ZM167.5 183q2.5 1 1 2-2.5-1-1-2ZM256.5 183v1-1ZM273.5 183v1-1ZM334.5 183v1-1ZM329.5 184l1.5.5-1.5.5v-1ZM272.5 185v1-1ZM325.5 185l1.5.5-1.5.5v-1ZM171.5 186v1-1ZM218 186l9.5 5 7 2 3.5 2.5-1.5-.5q-2.5-2-8-1v1l1.5.5-1.5.5-7-3-2.5-2.5-1-4.5ZM258.5 186v1-1ZM321.5 186v1-1ZM161.5 187l-.5 1.5 4 4-.5.5-4.5-4.5 1.5-1.5ZM173.5 187v1-1ZM310.5 187l-.5 1.5q-1.54 6.46-6.5 9.5l-4 2h-8q-1.5-1 1-2h5l5.5-4.5 3.5-4.5 4-2ZM317.5 187v1-1ZM163.5 188v1-1ZM175.5 188v1-1ZM271.5 188v1-1ZM313.5 188v1-1ZM166.5 189v1-1ZM177.5 189v1-1ZM260.5 189v1-1ZM294.5 189l1 1h4.5v1.5l-3.5 3.5-3-2h-2l-7 3q-1.5-1 1-2l7.5-2.5-3-1 4.5-1.5Zm.5 3v1-1ZM169.5 190v1-1ZM179.5 190v1-1ZM312.5 190v1-1ZM172.5 191v1-1ZM270.5 191l.5 1.5h-1l.5-1.5ZM176.5 192v1-1ZM184.5 192l.5 2-3-.5 2.5-1.5ZM262.5 192v1-1ZM311.5 192v1-1ZM187.5 193v1-1Z" />
  <path fill="#B2D0D0" stroke="#B2D0D0" d="M310.5 194q1.5 1-1 2-1.5-1 1-2ZM168.5 195v1-1ZM221.5 195l17 5 4.5 3.5-1.5-.5h-12q-4.83-1.67-7.5-5.5l-.5-2.5ZM264.5 195v1-1ZM269.5 196v1-1ZM275.5 196v1-1ZM171.5 197v1-1ZM173.5 198v1-1ZM175.5 199v1-1ZM268.5 199q1.5 1-1 2-1.5-1 1-2ZM305.5 199v1-1ZM177.5 200v1-1ZM303.5 200v1-1ZM170 201l2 .5q-1 2.5-2 1V201ZM180.5 201v1-1ZM175.5 202l1.5.5-1.5.5v-1ZM183.5 202l.5 2-3-.5 2.5-1.5ZM225.5 203l4 2 11 2 5.5 2.5-3.5 1.5h-6l-8-4-3.5-3.5.5-.5ZM174.5 205v1-1ZM176.5 206v1-1ZM299.5 208v1-1ZM182.5 209v1-1ZM184.5 210v1-1ZM295.5 210l.5 2.5q-2 1-1 5l-3.5 3.5h-8l-10-5q-.92 1.75-3.5 1-1.12-2.67 1.5-2l3-2h2l1 1h11l7-4ZM188.5 211v1-1ZM180.5 212v1-1ZM191.5 212v1-1ZM232.5 212l3 1h5l1 1h4l10 4 2.5 2.5 1 3-1 2.5h-1.5l-6 5 .5-1.5V228q2.67 1.13 2-1.5 1.75-.75 1-4l-4.5-3.5h-8l-6-3-3.5-3.5.5-.5ZM186.5 213l1.5.5-1.5.5v-1ZM196.5 213l1.5.5-1.5.5v-1ZM298.5 213l.5 3.5h-1l.5-3.5ZM181.5 214v1-1ZM186.5 217v1-1ZM191.5 219v1-1ZM194.5 220v1-1ZM198.5 221v1-1ZM205.5 222l6.5.5-5.5 1.5q-2.5-1-1-2ZM242.5 222v1-1ZM189 223l2 .5-1 1 .5 1.5-1.5-3ZM238.5 223v1-1ZM246.5 224v1-1ZM233.5 225v1-1ZM192.5 226v1-1ZM245.5 226v1-1ZM228.5 227v1-1ZM196.5 228v1-1ZM226.5 228v1-1ZM244.5 228v1-1ZM198.5 229v1-1ZM223.5 229v1-1ZM202.5 230v1-1ZM219.5 230l1.5.5-1.5.5v-1ZM209.5 231l5.5.5-5.5.5v-1ZM242.5 231v1-1ZM284.5 232l6 1q.92-1.75 3.5-1l-1 7-3 1.5-2 7-5.5 6.5-3.5 1q.15-3.65 3-5.5v-2l-1-1v-12l3.5-2.5Zm-1.5 12-1 3h1v-3ZM297.5 233l.5 1.5h-1l.5-1.5ZM266.5 234l1.5 4.5v6l-2 5-5.5 5.5-9.5 8.5-3 7-5.5 6.5-8 6-.5-4.5 6-8 9-18 4.5-5.5 8-3 3.5-3.5 1.5-6.5ZM239.5 236v1-1ZM238.5 238v1-1ZM296.5 238v1-1ZM237.5 240v1-1ZM291.5 241v1-1ZM295.5 241v1-1ZM294.5 244v1-1ZM235.5 245v1-1ZM293.5 246v1-1ZM234.5 248l.5 1.5h-1l.5-1.5ZM292.5 248v1-1ZM290.5 251v1-1ZM233.5 252v1-1ZM288.5 254q1.5 1-1 2-1.5-1 1-2ZM232.5 256l.5 1.5h-1l.5-1.5ZM283.5 260l.5.5-4.5 4.5-.5-.5 4.5-4.5ZM231.5 262l.5 2.5h-1l.5-2.5ZM275.5 267v1-1ZM272.5 269v1-1ZM250.5 270l1.5 1.5 1 5 4 8 5.5 6.5 1.5-.5-.5 1.5 2.5 1.5 4 9h-1l-4.5-8.5-.5 1.5 2 3 2 6v3l1 1v7l1 1v10h-1l-1-14-5.5-15.5-.5 2.5 1 2h-1q-.86-5.64-4-9v-2l-8-16 .5-4.5Zm11.5 26v1-1ZM254.5 270v1-1ZM257.5 271l1.5.5-1.5.5v-1ZM266.5 271v1-1ZM255.5 272v1-1ZM256.5 274v1-1ZM258.5 277v1-1ZM259.5 279q2.5 1 1 2-2.5-1-1-2ZM262.5 283v1-1ZM261.5 287v1-1ZM265.5 287v1-1ZM267.5 290v1-1ZM231.5 292l.5 2.5h-1l.5-2.5ZM269.5 293v1-1ZM273.5 301v1-1ZM232.5 302l.5 2.5h-1l.5-2.5ZM270.5 304v1-1ZM274.5 304v1-1ZM263.5 305v1-1ZM271.5 307v1-1ZM275.5 307l.5 1.5h-1l.5-1.5ZM276.5 313l.5 2.5h-1l.5-2.5ZM276.5 325l.5 2.5h-1l.5-2.5ZM272.5 327l.5 1.5h-1l.5-1.5ZM232.5 328l.5 2.5h-1l.5-2.5ZM268.5 330l.5 2.5h-1l.5-2.5ZM273.5 330v1-1ZM275.5 331v1-1ZM271.5 333l.5 1.5h-1l.5-1.5ZM231.5 337l.5 1.5h-1l.5-1.5ZM270.5 338v1-1ZM269.5 342v1-1ZM230.5 344l.5 1.5h-1l.5-1.5ZM263.5 344l.5 2.5h-1l.5-2.5ZM268.5 345v1-1ZM262.5 348v1-1ZM267.5 348v1-1ZM229.5 350v1-1ZM261.5 350l1.5 2.5h-1l-.5-2.5ZM266.5 350v1-1ZM260.5 353v1-1ZM265.5 353v1-1ZM228.5 355l.5 1.5h-1l.5-1.5ZM259.5 355v1-1ZM262.5 355v1-1ZM258.5 357v1-1ZM257.5 359v1-1ZM227.5 360v1-1ZM237.5 361l.5 1.5h-1l.5-1.5ZM248.5 361v1-1ZM255.5 362v1-1ZM247.5 363l.5 1.5q-1 2.5-2 1l1.5-2.5ZM226.5 364l.5 1.5h-1l.5-1.5ZM235.5 364l1.5.5-1.5.5v-1ZM253.5 365v1-1ZM233.5 367q1.5 1-1 2-1.5-1 1-2ZM235.5 367v1-1ZM246.5 367v1-1ZM225.5 368l.5 1.5h-1l.5-1.5ZM244.5 368q2.5 1 1 2-2.5-1-1-2ZM234.5 369v1-1ZM250.5 369l.5.5-3.5 3.5-.5-.5 3.5-3.5ZM233.5 371v1-1ZM242.5 371v1-1ZM224.5 372v1-1ZM229.5 372l.5.5-3.5 3.5-.5-.5 3.5-3.5ZM245.5 372v1-1ZM232.5 373v1-1ZM240.5 374q1.5 1-1 2-1.5-1 1-2ZM224.5 375v1-1ZM231.5 375v1-1ZM230.5 377v1-1ZM228.5 380v1-1ZM235.5 380l.5.5-3.5 3.5-.5-.5 3.5-3.5ZM227.5 382v1-1ZM226.5 384v1-1ZM226.5 389v1-1Z" />
  <path fill="#FFF" stroke="#FFF" d="M0 0h500v500H0V0Zm206 84-3 4v18l2 6v4l1 1v1l-8-15q-1-3-2-1v13l1 1 1 8 3 7 1 1-8-12h-1v9q2 0 1 4l4 10 2 2-6-6-1 1 3 9 1 1-9-8-17-16-5-7-2-5q-1-3-2-1v5l1 1 1 6 6 10 3 3q-12-9-17-22l-2 1 1 1v7l2 6 6 11 2 2-11-12q1-3-2-2l1 3v4l3 6 1 1-2-2-3-4-1 1v3l3 7 9 13 6 6-7-5-9-9-1 1q2 7 6 12 5 7 14 11v1l-12-6-2 1 1 2q9 11 25 16v1h-6q-1-2-4-1l-9-3-3-2q-3-1-2 2l12 9 6 3 5 1v1h-5l-6-2q-3-1-2 2h2l3 3 10 5h3l4 2h4v1h-7l-1-1h-6l-1-1-2 1 8 5h2l3 2 6 1 1 1h6q2 1 1 2h-14l-1-1q-3-1-2 2l10 5q3-1 4 1h6l1 1 11-1 16-7 10-2-3 8-5 7-4 9-2 10-1 1v5l-1 1v32l1 1v9l1 1v22l-1 1v8l-1 1v6l-1 1v5l-2 6v4l-3 9v3l-1 1q-2 4 3 3l7-9q1-3 2-1l-6 13-6 10q-1 2 3 1l14-15 4-7q1-3 2-1l-2 3q-2 4 3 3l10-13 4-10h1l-1 2v4h2l2-2v-2l4-9 3-14v2l3 1q-1-3 1-4v-14l-1-1v-5l-2-6-4-8-13-18-1-3v-2l2 1h9l6-2 7-5 9-10 6-10 2-6v-3l1-1v-17l1-1v-7l3-9 4-1q5-3 7-10l2-2 7-1 1-1h4l9-3h3l1-1h3l4-2q4 1 2-3h-10l-1 1h-11l-1 1h-14l-7-5-6-1-1-1h-8l-8 3-4 3-6 8-2 6v4l-2 4-31-44-9-15-5-11-2-2-1-4-7-14-7-26ZM206.5 119v1-1ZM202.5 133v1-1ZM200.5 146v1-1ZM297.5 183v1-1Z" />
  <path fill="#FFF" stroke="#FFF" d="m185.5 193 1.5.5-1.5.5v-1ZM184.5 203l2.5.5-2.5.5v-1ZM236.5 363v1-1Z" />
  <path fill="#0D2634" stroke="#0D2634" d="M204 86q3.33-1.31 2 3.5l2 4v3l4 12 11 24 2 2 3 7 9 15 18 25 12 18v1.5q3 1.25 2-2.5l1-1 2-11q2.69-5.81 7.5-9.5l8-4h12l6 2 7 5h7l1-1h11l1-1h16v1l-8 3h-3l-5 2h-4l-1 1h-3l-1 1h-3l-1 1-6.5 1q-1.62 7.97-8.5 12l-3.5 2.5-3 9v19l-1 1v5l-2 6q-6.16 14.34-17.5 23.5l-9 5-8 1-6-2 .5 1.5 2 5 12 16 5 10 1 7 1 1V331q-3.67 1.35-2-4.5l-1.5-4.5-.5 9.5-1 1-1 8-3 9-3.5 6.5q-2.75-1.25-.5-2.5l1-10h-1v3l-5 12-6 9-5.5 5.5q-2.75-1.25-.5-2.5l2-7q-1-1.5-2 1-7.51 15.49-20.5 25.5l-.5-2.5 4-6 8-16 1-4q-1-1.5-2 1-3.87 8.13-10.5 13.5l-.5-4.5 2-5v-4l1-1 1-8 1-1v-5l1-1v-5l1-1v-7l1-1v-10l1-1v-8l-1-1v-13l-1-1v-9l-1-1v-21l1-1v-7q2-1 1-5l1-1v-3l2-6 3-7 8-13V222h-5.5l-9 3-5 3-6 2h-3l-1 1h-13l-1-1-6-1-7.5-4.5 7.5-.5q1 2 2 0h9l3.5-1.5-15.5-1.5-16.5-7.5 3.5-.5 1 1h14v-1h-4l-1-1h-4l-6-2-12.5-7.5 2.5-.5 6 2h8v-1h-3l-8-4h-2l-8-5-5.5-5.5 1.5-.5 3 2 6 2h3l1 1q4-1 5 1h7v-1h-2l-13-6-11.5-9.5-2-3 1.5-.5 4 3 9 3q1.5-1-1-2-9.56-4.94-15.5-13.5-3.14-3.36-4-9h1l5.5 6.5 8 6 3 1 .5-.5-9-9q-7.06-8.44-11-20l.5-.5 5 5 .5-.5-3-6-1-6h1l3 5 8.5 9.5 1.5-.5q-5.6-5.9-9-14l-2-6v-3l-1-1v-3q1-1.5 2 1l4 7 10.5 11.5q2.25.75 1.5-1.5l-5-6-4-8-1-3v-5h1q7.51 15.49 20.5 25.5l12 10 .5-1.5-3-5v-3q1-1.5 2 1l4.5 5.5.5-1.5-5-9-2-6-1-10h1l9.5 15.5.5-1.5-3-5-4-12v-14h1l1 4 3 4 2 6 4.5 7.5.5-1.5-5-15q1.25-4.75-1-6v-11l1-1V86Zm5 23v9l1 1v3l3 9 5 11 8 13 2 2-17-23-9-18h-1l1 6 4 12 5 10 14 20 13 13-4-3q-20-16-33-39-1-3-2-1l1 6 4 8 9 12 11 11-15-13-2 1 33 28 4 2-1-1 1-1-1-1 1-1 10 10q-3-8-9-12l1-1 3 3h1l-11-15 1-1 3 3-18-28-13-25v-2l-3-8Zm1 17v1-1Zm-49 2-1 2 3 6 9 13q6 8 16 13 2 1 1 2-14-7-24-17l-1 2 12 11 13 9 8 4v1l-15-7-16-11-6-6-1 1 6 9 13 11q7 6 17 9v1l-15-5-10-5-5-4-2 1 7 6 9 6 16 7 6 1v1h-4l-1-1h-4l-5-2h-3l-9-3-5-3-2 1 8 5 14 6 10 2 1 1h5l3 2h-12q-1-2-2 0l-2-1-15-1-5-2-2 1 10 5 6 2h3l1 1h5l1 1h15l1-1 6 1-11 1-1 1h-5l-1 1h-16l-1-1-1 2h3l6 3q3-1 4 1h7l1 1q3 1 5-1h7l1-1 4 1-4 1h-4l-7 3-13 2 11 3h13l8-3 2 1-13 6-13 3 4 1h5l1 1 2-1 9-1 11-5 6-1 3-2h7l3 1 2 3v3l-1 2 5-2 1-2-1-3-6-5-6-2h-4l-1-1h-4l-4-2-1 2q2 4 8 5v1l-3-1-7-6 1-2-1-1-7-6v-2l-2-2-4-9q-1-5 1-5l-5-8 1-2-4-6 1-2q-17-13-31-29l-2 1 2 3 22 20 3 4-18-13-14-12-12-13Zm38 3-1 2h1v-2Zm-22 5v1-1Zm28 0-1 2h1v-2Zm-27 1v1-1Zm-4 1v1-1Zm1 1v1-1Zm1 1v1-1Zm1 1v1-1Zm1 1v1-1Zm-20 2-1 2q1 2 2 1l-1-3Zm4 0v1-1Zm1 1v1-1Zm1 1v1-1Zm-4 1v1-1Zm42 0-1 2q1 2 2 1l-1-3Zm-41 1v1-1Zm-2 1v1-1Zm3 0v1-1Zm36 1v1-1Zm6 0v1-1Zm-2 1v1-1Zm1 1v1-1Zm1 1v1-1Zm1 2v1-1Zm1 1v1-1Zm1 1v1-1Zm-45 8v1-1Zm1 1v1-1Zm49 1v1-1Zm-40 2v1-1Zm43 0v1-1Zm-2 1-1 1 6 5 15 11h2l-22-17Zm3 0v1-1Zm3 2v1-1Zm25 0v1-1Zm-24 1v1-1Zm25 0v1-1Zm-30 2-1 2 2 4 6 5 8 4h2l-12-12-5-3Zm75 0-7 3q-3 1-1 2l2-1 1 1-4 4-5 9 1 2 2-4 7-5h6l4-6h5l5 5h2q1-2 3 1l7-1 1-1h5l1-1h4l5-2h4v-1l-13 1-1 1h-10l-1 1-9-6-6-2h-8Zm-66 1v1-1Zm-56 3v1-1Zm7 1v1h1l-1-1Zm105 0q-3 1-1 2l2-1-1-1Zm18 2q-2 3 1 2 1-1-1-2Zm-47 3v1-1Zm-33 1v4q3 3 8 5l9-1-7-3-5-3q-3 1-2-2h-3Zm34 0v1-1Zm-16 1-1 1 3 1h1q0-2-3-2Zm9 0v1-1Zm66 0-3 1-5 6-5 4h-5q-3 1-1 2h8l4-2q5-3 7-9v-2Zm-65 1v1-1Zm7 0v1-1Zm-13 1v1-1Zm5 0v1-1Zm49 0-3 1v2l-5 2q-3-1-2 2l5-2q4-1 5 2l3-1 3-3v-2l-6-1Zm-61 1v1-1Zm13 0v1-1Zm1 1v1-1Zm1 1v1-1Zm-58 2v1-1Zm46 0v1h1l-1-1Zm-15 1v2l6 5 3 1h12l-3-3-6-2h-3l-9-3Zm8 0v1h1l-1-1Zm9 0v1-1Zm17 0v1-1Zm1 1v1-1Zm20 0v1-1Zm-19 1-1 2h1v-2Zm1 2v1-1Zm-32 4-1 1 5 4 7 3h6l3-1-5-3-11-2-4-2Zm17 0v1-1Zm53 7-7 4h-11l-1-1h-2l-3 2q-3-1-2 2 3 1 4-1l10 5h8l3-3 1-3v-5Zm-24 8-4 4-1 3 1 11 1 1v8l-1-8-1-3-2 7-3 3-8 3-5 6-9 18-6 8 1 4 7-5 4-4 6-11 7-6 7-7 1-3h1l-2 5-10 8-4 6 7 3h7l3-1 10-6 8-9 3-5v-2l3-5 1-8 1-1v-12l-5 3-7-1-7-4h-4Zm-22 3v3l-3 5 1 1 4-3q2-1 1-4l-3-2Zm1 7v2q1 1 2-1l-2-1Zm-4 2v1-1Zm4 0v1-1Zm-5 1v1-1Zm-1 2v1-1Zm6 36-3 5q-4 6-11 9l-3 4 1 13 1 1v9l1 1v14l-1 1-1 17-1 1v6l-2 6v4l-2 4 1 3 5-7 6-12 2-6v-4l1-1v-4l1-1v-5h1l-1 15-1 1v4l-2 5v3l-9 21 1 1 9-12 8-18 1-8 1-1v-6l1-1v-17h1v25l-1 1-1 11-3 9 1 2 5-7 4-9 1-7 1-1v-9q2-1 0-2-1-4 1-4l-1-3 1-7v5l1 1v5l1 1 1 17 2-7v-4l1-1v-19l-3-9 1-2 3 7v2h1l-1-6-5-10-11-15-4-9Zm22 40-1 3h1v-3Zm-34 50-1 2h1v-2Zm10 2-1 2h1v-2Zm2 1-1 2h1v-2Zm-21 5v1-1Zm4 10v1-1ZM225.5 171v1-1ZM198.5 174v1-1Z" />
  <path fill="#0D2634" stroke="#0D2634" d="m196.5 181 1.5.5-1.5.5v-1ZM199.5 182v1-1ZM202.5 189l2.5.5-2.5.5v-1ZM228.5 216l1.5.5-1.5.5v-1ZM258.5 296v1-1ZM259.5 298l.5 1.5h-1l.5-1.5ZM266.5 298v1-1ZM260.5 301l1.5 5.5h-1l-1-3 .5-2.5ZM253.5 303l.5 1.5h-1l.5-1.5ZM254.5 307l.5 4.5h-1l.5-4.5ZM262.5 308l.5 3.5h-1l.5-3.5Z" />
  <path fill="#9D3B7E" stroke="#9D3B7E" d="M205.5 85v1-1ZM203.5 89l.5 1.5h-1l.5-1.5ZM206.5 89v1-1ZM207.5 92v1-1ZM208.5 96v1-1ZM209.5 99v1-1ZM197.5 102v1-1ZM210.5 102v1-1ZM203.5 103l.5 1.5h-1l.5-1.5ZM196.5 104l.5 8.5h-1l.5-8.5ZM211.5 105v1-1ZM199.5 107v1-1ZM212.5 108v1-1ZM200.5 109v1-1ZM204.5 109v1-1ZM162.5 113l.5 1.5h-1l.5-1.5ZM205.5 113v1-1ZM214.5 113v1-1ZM211.5 116v1-1ZM155.5 117v1-1ZM201.5 117v1-1ZM204.5 117v1-1ZM206.5 117v1-1ZM197.5 118v1-1ZM166.5 119v1-1ZM205.5 119v1-1ZM163.5 120v1-1ZM207.5 120q1.5 1-1 2-1.5-1 1-2ZM194.5 121v1-1ZM155.5 122v1-1ZM158.5 122v1-1ZM168.5 122v1-1ZM198.5 122v1-1ZM218.5 122v1-1ZM164.5 123v1-1ZM207.5 123q2.25-.75 1.5 1.5-1 1.5-2-1l.5-.5ZM219.5 124v1-1ZM165.5 125v1-1ZM156.5 126v1-1ZM161.5 126v1-1ZM193.5 126l.5 1.5h-1l.5-1.5ZM197.5 126v1-1ZM209.5 126v1-1ZM220.5 126v1-1ZM166.5 127v1-1ZM172.5 127l2.5 2.5-.5.5-2.5-2.5.5-.5ZM200.5 127v1-1ZM221.5 128v1-1ZM157.5 129v1-1ZM160.5 129v1-1ZM167.5 129v1-1ZM199.5 129v1-1ZM152.5 130v1-1ZM222.5 130v1-1ZM161.5 131v1-1ZM165.5 131l6 6 1.5-.5-1.5 1.5-6.5-6.5.5-.5ZM194.5 131v1-1ZM200.5 131v1-1ZM154.5 132v1-1ZM169.5 132v1-1ZM202.5 132v1-1ZM223.5 132v1-1ZM162.5 133v1-1ZM206.5 133v1-1ZM153.5 134v1-1ZM195.5 134v1-1ZM200.5 134v1-1ZM202.5 134l1.5.5-1.5.5v-1ZM220.5 134v1-1ZM163.5 135v1-1ZM157.5 136v1-1ZM204.5 136l.5 1.5h-1l.5-1.5ZM221.5 136v1-1ZM182.5 137l2.5 2.5-.5.5-2.5-2.5.5-.5ZM179.5 138q2.5 1 1 2-2.5-1-1-2ZM214.5 138v1-1ZM222.5 138v1-1ZM162.5 139v1-1ZM193.5 139l.5 1.5h-1l.5-1.5ZM197.5 139v1-1ZM217.5 139v1-1ZM227.5 139v1-1ZM155.5 140v1-1ZM166.5 140v1-1ZM161.5 141l2 2 1.5-.5q-2.25 1.25.5 2.5l1.5.5-1.5.5-4.5-4.5.5-.5ZM176.5 141q2.5 1 1 2-2.5-1-1-2ZM198.5 141v1-1ZM216.5 141v1-1ZM218.5 141v1-1ZM228.5 141v1-1ZM156.5 142v1-1ZM196.5 142q2.5 1 1 2-2.5-1-1-2ZM152.5 143v1-1ZM199.5 143v1-1ZM161.5 144v1-1ZM153.5 145v1-1ZM157.5 145q2.25-.75 1.5 1.5l3 3-.5.5-4.5-4.5.5-.5ZM226.5 145v1-1ZM195.5 146v1-1ZM208.5 146v1-1ZM231.5 146v1-1ZM154.5 147v1-1ZM193.5 147q2.5 1 1 2-2.5-1-1-2ZM196.5 148v1-1ZM201.5 148q2.25-.75 1.5 1.5l.5 1.5-2.5-2.5.5-.5ZM222.5 148v1-1ZM155.5 149v1-1ZM222.5 150v1-1ZM156.5 151v1-1ZM201.5 151v1-1ZM224.5 151v1-1ZM234.5 151v1-1ZM194.5 152q2.5 1 1 2-2.5-1-1-2ZM172.5 153v1-1ZM203.5 153v1-1ZM208.5 153v1-1ZM218.5 154v1-1ZM226.5 154q2.5 1 1 2-2.5-1-1-2ZM231.5 154l13.5 19.5-.5.5-3-3-.5.5 4 5v2l7 8-.5.5-2-2-1.5.5 10 14q-1 1.5-2-1l-9.5-10.5-1.5 1.5 3 3-.5.5-20-17H226l.5-2 8 6 .5-.5-4-4q-.82-4.68-4-7l.5-.5 6 6 2 1 .5-1.5-3-3-6-13 2-.5v1.5l4.5 5.5.5-2.5-3-6 .5-1.5Zm3.5 10v1-1Zm1 1-1 2h1v-2Zm1 2v1-1Zm3 2v1-1Zm1 1v1-1Zm-4 5v1-1Zm1 1v1-1Zm-2 4v1-1Zm10 2v1-1Zm1 1v1-1Zm1 1v1-1Zm-4 1v1-1Zm1 1v1-1Zm-1 1v1-1Zm2 0v1-1Zm-1 1v1-1ZM215.5 155v1-1ZM154.5 156l5.5 5.5-.5.5-5-5-1.5.5 1.5-1.5ZM176.5 156v1-1ZM237.5 156v1-1ZM161.5 158v1-1ZM194.5 158v1-1ZM208.5 158q2.5 1 1 2-2.5-1-1-2ZM221.5 158v1-1ZM170.5 159v1-1ZM202.5 159l9.5 8.5h-2l1.5 3.5 3-2q2.5 1 1 2-1-2-2 0l-1.5.5 3 5-1 2 1.5 2.5 1.5-.5q-2.5 1.5 1 3-1.67 1.83-1 6h2l-1 2 2.5 5.5 1.5-.5-1 2q2.5.5 2 4l5.5 5.5 1.5-.5-.5 1.5 1.5.5-1 2 5.5 5.5 1.5-.5-.5 1.5 2-1v2l2-1 .5 2-2.5 1h-3l-1 1h-3l-2-2-3.5-.5 4.5-2.5h2.5l-1.5-3-11-1-3.5-1.5 4-.5q-1.31-3.33 3.5-2v-1l-8-3H212l-1-2.5 1.5.5 6.5-.5-2.5-2.5h-4l-7.5-2.5 4.5-1.5q1 2 2 0l4.5-.5-3.5-1.5h-3l-6.5-3.5 3.5-1.5q1 2 5 1v-1h-2l-9.5-5.5.5-1.5 4 2h3v-1q-7.75-2.75-12.5-8.5h3q-.75 2.25 1.5 1.5l6 2v-1l-5-2-7.5-6.5 1.5.5 7 3 .5-.5-5-5-2-4 1.5.5 8.5 4-1-4.5-2-3 .5-.5Zm3.5 8v1h1l-1-1Zm-3 5v1h1l-1-1Zm11 3-1 2h1v-2ZM213.5 159v1-1ZM239.5 159v1-1Z" />
  <path fill="#9D3B7E" stroke="#9D3B7E" d="M199.5 160q2.5 1 1 2-2.5-1-1-2ZM184.5 161v1-1ZM186.5 161v1-1ZM174.5 162v1-1ZM179.5 162v1-1ZM241.5 162v1-1ZM156.5 163v1-1ZM225.5 163v1-1ZM163.5 164v1-1ZM190.5 164v1-1ZM202.5 164v1-1ZM213.5 164q2.5 1 1 2-2.5-1-1-2ZM179.5 165v1-1ZM243.5 165v1-1ZM164.5 167v1-1ZM160.5 168l2.5 2.5-.5.5-2.5-2.5.5-.5ZM188.5 168v1-1ZM220.5 168v1-1ZM245.5 168v1-1ZM171.5 169v1-1ZM223.5 169q2.5 1 1 2-2.5-1-1-2ZM220.5 170v1-1ZM247.5 171v1-1ZM218.5 172l1.5 1.5-2.5 2.5-.5-.5 2-2-.5-1.5ZM226.5 172v1-1ZM291.5 172l4.5.5-4.5.5v-1ZM169.5 173v1-1ZM300.5 173v1-1ZM284.5 174v1-1ZM303.5 174v1-1ZM162.5 175v1-1ZM168.5 175v1-1ZM282.5 175v1-1ZM289.5 175l1.5.5-1.5.5v-1ZM296.5 175l1.5.5-1.5.5v-1ZM160.5 176v1-1ZM164.5 176v1-1ZM173.5 176v1-1ZM181.5 176v1-1ZM223.5 176v1-1ZM280.5 176v1-1ZM286.5 176v1-1ZM307.5 176v1-1ZM303.5 177v1-1ZM343.5 177l4.5.5-4.5.5v-1ZM172.5 178q1.5 1-1 2-1.5-1 1-2ZM186.5 178v1-1ZM219.5 178v1-1ZM252.5 178v1-1ZM305.5 178v1-1ZM310.5 178v1-1ZM330.5 178l1.5.5-1.5.5v-1ZM167.5 179v1-1ZM189.5 179v1-1ZM222.5 179v1-1ZM317.5 179l2.5.5-2.5.5v-1ZM347.5 179v1-1ZM175.5 180v1-1ZM192.5 180v1-1ZM195.5 180l.5 1.5h-1l.5-1.5ZM279.5 180q1.5 1-1 2-1.5-1 1-2ZM308.5 180v1-1ZM332.5 180l1.5.5-1.5.5v-1ZM337.5 180v1-1ZM344.5 180v1-1ZM165.5 181q2.5 1 1 2-2.5-1-1-2ZM198.5 181l.5 1.5h-1l.5-1.5ZM324.5 181l1.5.5-1.5.5v-1ZM341.5 181v1-1ZM170.5 182v1-1ZM255.5 182v1-1ZM274.5 182v1-1ZM297.5 182q2.5 1 1 2-2.5-1-1-2ZM313.5 182l2.5.5-2.5.5v-1ZM328.5 182v1-1ZM337.5 182v1-1ZM186.5 183v1-1ZM322.5 183l1.5.5-1.5.5v-1ZM333.5 183v1-1ZM309.5 184v1-1ZM317.5 184v1-1ZM328.5 184v1-1ZM170.5 185v1-1ZM175.5 185v1-1ZM182.5 185v1-1ZM257.5 185v1-1ZM312.5 185v1-1ZM324.5 185v1-1ZM177.5 186v1-1ZM186.5 186v1-1ZM194.5 186v1-1ZM220.5 186v1-1ZM320.5 186v1-1ZM160.5 187v1-1ZM190.5 187v1-1ZM237.5 187v1-1ZM316.5 187v1-1ZM195.5 188v1-1ZM201.5 188l.5 1.5h-1l.5-1.5ZM252.5 188v1-1ZM259.5 188v1-1ZM307.5 188v1-1ZM310.5 188v1-1ZM165.5 189v1-1ZM293.5 189v1-1ZM295.5 189v1-1ZM168.5 190v1-1ZM180.5 190v1-1ZM309.5 190v1-1ZM171.5 191v1-1ZM182.5 191v1-1ZM189.5 191v1-1ZM261.5 191v1-1ZM291.5 191l1.5.5-1.5.5v-1ZM175.5 192v1-1ZM192.5 192v1-1ZM288.5 192v1-1ZM294.5 192l-.5 1.5 1 1q.75 2.25-1.5 1.5l-2.5-2.5.5-.5 3-1ZM308.5 192v1-1ZM180.5 193l1.5.5-1.5.5v-1ZM196.5 193v1-1ZM270.5 193v1-1ZM286.5 193q2.5 1 1 2-2.5-1-1-2ZM167.5 194v1-1ZM172.5 194v1-1ZM176.5 194v1-1ZM189.5 194v1-1ZM200.5 194v1-1ZM263.5 194v1-1ZM284.5 194q2.5 1 1 2-2.5-1-1-2ZM174.5 195v1-1ZM183.5 195v1-1ZM206.5 195l1.5.5-1.5.5v-1ZM170.5 196v1-1ZM191.5 196l1.5.5-1.5.5v-1ZM195.5 196v1-1ZM308.5 196l.5.5-2.5 2.5-.5-.5 2.5-2.5ZM172.5 197v1-1ZM265.5 197v1-1ZM269.5 197v1-1ZM180.5 198v1-1ZM176.5 199v1-1ZM178.5 200v1-1ZM268.5 200v1-1ZM226.5 201v1-1ZM174.5 202v1-1ZM301.5 202v1-1ZM172.5 203q2.5 1 1 2-2.5-1-1-2ZM179.5 203l1.5.5-1.5.5v-1ZM187.5 203v1-1ZM226.5 203v1-1ZM300.5 204v1-1ZM201.5 205v1-1ZM183.5 206v1-1ZM178.5 207v1-1ZM299.5 207v1-1ZM180.5 208v1-1ZM191.5 209v1-1ZM185.5 210v1-1ZM195.5 210v1-1ZM203.5 211l4.5.5-4.5.5v-1ZM232.5 211v1-1ZM298.5 211l.5 1.5h-1l.5-1.5ZM179.5 212v1-1ZM192.5 212l1.5.5-1.5.5v-1ZM212.5 212v1-1ZM235.5 212v1-1ZM184.5 213l1.5.5-1.5.5v-1ZM198.5 213v1-1ZM209.5 213v1-1ZM295.5 213l.5 1.5h-1l.5-1.5ZM183.5 215v1-1ZM185.5 216v1-1ZM227.5 216v1-1ZM187.5 217v1-1ZM189.5 218v1-1ZM220.5 218v1-1ZM192.5 219v1-1ZM203.5 219v1-1ZM216.5 219v1-1ZM249.5 219v1-1ZM195.5 220v1-1ZM199.5 221l1.5.5-1.5.5v-1ZM251.5 221q2.5 1 1 2-2.5-1-1-2ZM216.5 222v1-1ZM241.5 222v1-1ZM284.5 222v1-1ZM290.5 222v1-1ZM208.5 223v1-1ZM229.5 223v1-1ZM198.5 224v1-1ZM226.5 224v1-1ZM235.5 224v1-1ZM249.5 224v1-1ZM267.5 224v1-1ZM206.5 225v1-1ZM232.5 225v1-1ZM252.5 225v1-1ZM221.5 226v1-1ZM230.5 226v1-1ZM248.5 226v1-1ZM194.5 227v1-1ZM210.5 228l1.5.5-1.5.5v-1ZM225.5 228v1-1ZM247.5 228l1.5.5-1.5.5v-1ZM199.5 229v1-1ZM222.5 229v1-1ZM267.5 229v1-1ZM203.5 230v1-1ZM218.5 230v1-1ZM243.5 230v1-1ZM245.5 231v1-1ZM297.5 231l.5 1.5h-1l.5-1.5ZM241.5 233v1-1ZM244.5 233v1-1ZM240.5 235v1-1ZM267.5 236l.5 1.5h-1l.5-1.5ZM296.5 237v1-1ZM292.5 240v1-1ZM295.5 240v1-1ZM237.5 241v1-1ZM236.5 243v1-1ZM294.5 243v1-1ZM267.5 245l1.5.5-1.5.5v-1ZM293.5 245v1-1ZM235.5 246v1-1ZM267.5 248v1-1ZM291.5 249v1-1ZM286.5 252v1-1ZM289.5 252v1-1ZM233.5 253v1-1ZM259.5 255q1.5 1-1 2-1.5-1 1-2ZM261.5 255v1-1ZM286.5 256v1-1ZM282.5 257l.5.5-4.5 4.5-.5-.5 4.5-4.5ZM232.5 258v1-1ZM255.5 260q1.5 1-1 2-1.5-1 1-2ZM251.5 263v1-1ZM231.5 265l.5 1.5h-1l.5-1.5ZM253.5 266v1-1ZM276.5 266v1-1ZM273.5 268v1-1ZM271.5 269v1-1ZM255.5 270v1-1ZM269.5 270v1-1ZM259.5 271v1-1ZM264.5 271l1.5.5-1.5.5v-1ZM248.5 272v1-1ZM245.5 273v1-1ZM246.5 275l1.5 2.5 1 7 2.5 4.5.5-2.5-1-2h1q-.75 2.25 1.5 1.5l3.5 5.5 3 9v3l3 9v7l1 3q-1.75.75-1 4 2 1 0 2v9l-1 1-1 7-4 9-4.5 6.5.5-1.5 6-15 1-10 1-1v-13h-1v10l-1 1-.5 4.5-.5-5.5 1-1v-11l-1-1-.5-5.5-1 11-.5-12.5-2-4q2-1 0-2l-1-2q2-1 0-2v-3l-7-18 .5-4.5Zm6.5 14-1 2h1v-2Zm1 2-1 2h1v-2Zm4 19v1-1ZM257.5 276v1-1ZM241.5 277v1-1ZM250.5 282v1-1ZM261.5 282v1-1ZM236.5 283q1.5 1-1 2-1.5-1 1-2ZM264.5 286v1-1ZM231.5 289l.5 2.5h-1l.5-2.5ZM266.5 289v1-1ZM234.5 291v1-1ZM270.5 295v1-1ZM271.5 297v1-1ZM232.5 299l.5 2.5h-1l.5-2.5ZM235.5 299v1-1ZM272.5 299v1-1ZM236.5 308l.5 1.5h-1l.5-1.5ZM275.5 309v1-1ZM272.5 311v1-1Z" />
  <path fill="#9D3B7E" stroke="#9D3B7E" d="m254.5 312 .5 1.5h-1l.5-1.5ZM233.5 313l.5 8.5h-1l.5-8.5ZM276.5 316l.5 8.5h-1l.5-8.5ZM272.5 322l1.5 7.5h-1l-1-3 .5-4.5ZM246.5 324l.5 1.5h-1l.5-1.5ZM236.5 325l.5 1.5h-1l.5-1.5ZM254.5 329l.5 1.5h-1l.5-1.5ZM232.5 331l.5 1.5h-1l.5-1.5ZM245.5 331v1-1ZM274.5 331v1-1ZM271.5 332v1-1ZM235.5 335v1-1ZM246.5 335v1-1ZM253.5 337v1-1ZM270.5 337v1-1ZM231.5 339l.5 1.5h-1l.5-1.5ZM255.5 339v1-1ZM243.5 341v1-1ZM269.5 341v1-1ZM245.5 342v1-1ZM252.5 342v1-1ZM234.5 343v1-1ZM263.5 343v1-1ZM268.5 344v1-1ZM230.5 346v1-1ZM251.5 346v1-1ZM241.5 347v1-1ZM244.5 347v1-1ZM262.5 347q2.25-.75 1.5 1.5l-.5.5q-2.5-1-1-2ZM267.5 347v1-1ZM250.5 349v1-1ZM233.5 350v1-1ZM229.5 351l.5 1.5h-1l.5-1.5ZM243.5 351v1-1ZM260.5 352v1-1ZM265.5 352v1-1ZM262.5 353v1-1ZM264.5 354v1-1ZM232.5 355v1-1ZM228.5 357v1-1ZM235.5 359v1-1ZM238.5 359l.5 1.5h-1l.5-1.5ZM256.5 360v1-1ZM227.5 361v1-1ZM236.5 362v1-1ZM248.5 362v1-1ZM230.5 363v1-1ZM239.5 363v1-1ZM243.5 364v1-1ZM246.5 364q2.5 1 1 2-2.5-1-1-2ZM234.5 365v1-1ZM236.5 365v1-1ZM226.5 366v1-1ZM245.5 366v1-1ZM252.5 366v1-1ZM229.5 367v1-1ZM237.5 368v1-1ZM231.5 369v1-1ZM243.5 369v1-1ZM225.5 370v1-1ZM236.5 370v1-1ZM245.5 370v1-1ZM241.5 372v1-1ZM224.5 373l.5 1.5h-1l.5-1.5ZM236.5 374v1-1ZM238.5 376v1-1ZM229.5 379v1-1ZM228.5 381v1-1ZM231.5 384l.5.5-4.5 4.5-.5-.5 4.5-4.5ZM225.5 386v1-1ZM224.5 388l.5 1.5h-1l.5-1.5Z" />
  <path fill="#D58931" stroke="#D58931" d="m208.5 109 2.5 7.5 10 19v7l2 5q-1 1.5-2-1l-8-16-3-9v-3l-1-1-.5-8.5ZM201.5 115l6.5 13.5 11 17 1 9 1 2q-1 1.5-2-1l-12-20v-2l-2-3-3-9v-4q-1.75-.75-.5-2.5ZM160.5 128l12 13 20.5 16.5-1.5.5-3-1-5-4-.5 2.5 3 5-.5.5-3-3-10.5-9.5-7-10-5-10 .5-.5ZM198.5 131l9.5 15.5 7 8q2 9 8 14l-.5.5-8.5-8.5-10-13-4-8-1-6-1-1 .5-1.5ZM176.5 136l18.5 17.5 3 5-.5.5-17.5-17.5-4-5 .5-.5ZM162.5 145l10 9 7 4 3.5 3.5 5 6-1.5-.5-11-7-11.5-11.5-2-3 .5-.5ZM158.5 149l7 7 9 7 6 3 3.5 3.5 7.5 8.5 2.5 1.5-1.5-.5q-8.56-2.94-15-8L165 159.5l-6-8-.5-2.5ZM202.5 152v1-1ZM204.5 155l9.5 8.5-1.5.5-8.5-8.5.5-.5ZM161.5 165l8 6 12 6 4 1 8 7 3.5 1.5-1.5.5-17-7-10-7-7.5-7.5.5-.5ZM167.5 167v1-1ZM169.5 168v1-1ZM168.5 180l14 6 7 1q3.55 4.45 9.5 6.5l-1.5.5-1-1h-3l-9-3-12-6-4.5-3.5.5-.5ZM194.5 181v1-1ZM198.5 187v1-1ZM171.5 193l5 2h6l1 1 13 1 3 2 11.5 3.5-14.5.5-1-1-9-1-6-3h-2l-7-4v-1ZM201.5 194v1-1ZM183.5 205l1 1h19l12.5 4.5-19.5.5-1-1-7-1-4-2q-2.5-1-1-2ZM206.5 214h5l4 2h5l3.5 1.5-7.5 1.5-1 1h-11l-1-1h-4l-6.5-2.5 7.5-.5 6-2ZM226.5 216v1-1ZM250.5 221l2.5 3.5-1 2.5-3.5 1 .5-1.5 1.5-5.5ZM217.5 222h4l4.5 2.5-8.5 3.5h-13l-3.5-1.5 9.5-1.5 7-3ZM273.5 224h6l4 2h4l4-2h3.5v8h-3.5q-.75 1.75-4 1l-3-1-3.5 2.5.5 12.5 1-3 .5 2.5-4 8.5q4.7-.45 7-4.5 3.46-3.54 4-10l1.5-1.5 1.5.5-2 2q2 1 0 2l-1 4-4 6-11.5 11.5-10 2-2.5-1-1-2.5 6-7q-2.5-1.5 1-3l3-6v-11l-1-1v-6l1-3 2.5-2.5Zm-3.5 29v1-1Zm-1 1v1-1Zm-1 1v1-1ZM284.5 224v1-1ZM247.5 229q1.5 1-1 2-1.5-1 1-2Z" />
  <path fill="#D58931" stroke="#D58931" d="m293.5 235 .5 1.5h-1l.5-1.5ZM250.5 269q2.5 1 1 2-2.5-1-1-2ZM249.5 271l2.5 8.5 8.5 17.5q1.25-2.25 2.5.5l5 15 1 14q1.75.92 1 3.5-3-1.25-2 2.5l1 2-2.5 7.5-.5-17.5-1-1v-5l-1-1-1-9-1-1v-3l-2-6-6.5-12.5q-2.62-.83-1.5 2.5l2 4h-1l-4-8-2-10 2.5-3.5Zm1.5 11v1-1Zm1 2-1 2h1v-2Zm10 13-1 3h1v-3Zm1 3-1 2h1v-2Zm1 5v1-1ZM252.5 272q3.25 8.75 9.5 14.5l-.5 1.5 2.5 1.5-.5 1.5 2.5 1.5-1.5-.5-5.5-4.5-6-11-.5-4.5ZM245.5 276l8.5 25.5q-1.75.92-1 3.5l2 .5-1 1v7l1 1v14l-1 1v7q-2 1-1 5l-1 1v3l-3 9-7 13-8.5 10.5.5-1.5 4-8v-2l2-3 4-12 1-8 1-1v-6l1-1v-11l-1-1v-15l-1-1-.5-6.5-1 2-.5-2.5q1.75-.75 1-4h-1l-1 7 1 1v11h-1l-.5-6.5-1 16-.5-12.5-1-1v-11l-1-1v-8q-2.25-1.25-1-6l1-3 2.5-2.5 5-4Zm-3.5 19-1 3h1v-3ZM264.5 294l1 1 1.5-.5-1 2h2l-3 1.5-.5-4ZM268.5 298l.5.5-2.5 2.5-.5-2 2.5-1ZM269.5 300l.5.5-2 2-.5 1.5-.5-1.5 2.5-2.5ZM270.5 302l.5 2-2-.5 1.5-1.5ZM268.5 305l.5 2.5h-1l.5-2.5ZM270.5 305q2.25-.75 1.5 1.5l-.5.5q-2.5-1-1-2ZM271.5 308l1.5 2.5h-1l-.5-2.5Z" />
  <path fill="#D58931" stroke="#D58931" d="m255.5 310 .5 2.5h-1l.5-2.5ZM257.5 310v1-1ZM269.5 310l.5 5.5h-1l.5-5.5ZM257.5 312l.5 5.5 1 1v11q-2.25 1.25-1 6h1l1.5-15.5.5 13.5-1 1-1 10-3 9-5.5 10.5-.5-1.5 2-4v-3l2-5v-4l1-1v-5l1-1v-16l1-1 .5-10.5Z" />
  <path fill="#F4195D" stroke="#F4195D" d="m221.5 137 4.5 8.5 4 5 4 13 3 4q-1 1.5-2-1l-9.5-13.5-.5 1.5 2 2 6 14 3 3-.5.5-9.5-9.5-5-7-2-11h1l4.5 6.5.5-1.5-3-5q.75-3.25-1-4l.5-5.5ZM183.5 153l5 4 7 2 11.5 8.5-1.5.5-10-6-.5 1.5 7.5 8.5 1.5.5-1.5.5-8-4-.5.5 2.5 2.5 9.5 5.5-2.5.5-5.5-2.5.5-1.5-2.5 1.5 12 8-3.5.5-10-4-10.5-9.5-2-3 1.5.5 9 4q1.5-1-1-2l-8.5-7.5-1-2 .5-.5 2 2 3 1 .5-.5-3-3-2-4 .5-2.5Zm5.5 10v1-1Zm2 1v1-1Zm3 4v1-1Zm0 4v1h1l-1-1Zm1 1v2q1 1 2-1l-2-1Z" />
  <path fill="#F4195D" stroke="#F4195D" d="m195.5 154 7.5 6.5 1 3-.5.5-4-4q-2.25.75-1.5-1.5l-3-4 .5-.5ZM215.5 156l11.5 11.5 4 8 5 5-1.5-.5-8-6-1 1-5-5-6.5-5.5 1.5.5 9 6 .5-.5-5-5-5-9 .5-.5Zm10.5 15v1-1Zm1 1v1-1ZM187.5 179l7 3h3q5.84 5.16 14.5 7.5l-4.5.5-1-1-7-1-6-3-6.5-5.5.5-.5ZM191.5 188l9 1 9 5h3l3.5 1.5-4.5.5-1 1-3-2h-5l-3-1-7-4q-2.5-1-1-2ZM197.5 197h7l4 2 8 1 1.5 1.5-9.5.5-11-4v-1ZM207.5 204l9 1 8.5 3.5-4.5 1.5h-6l-12.5-4.5 4.5-.5 1-1ZM213.5 212h6l1 1 11 1 1.5 1.5q.83 2.62-2.5 1.5l-4.5 2.5q4.69-.19 6 3l-3.5 1.5h-4l-5.5-2.5 11-5-3.5-.5q-1 2-5 1-1.25-2.25-6-1l-5.5-2.5 3.5-1.5ZM271.5 218h4l9 5h6l4-3 .5 4h-3.5l-4 2h-4l-4-2h-6l-2.5 2.5-1 3v6l1 1v11l-3 6h2l-9 10 1 2.5 2.5 1h3l3-1v1l-5 2h-7l-6.5-3v-1.5l8.5-8.5 5.5-4.5 3-6v-9l-1-1v-6q-1.75-.75-1-4 1.75-.75 1-4l3.5-3.5Zm13.5 6v1-1Zm-17 30v1-1Zm-1 1v1-1ZM237.5 283l.5 1.5q-2.25 1.25-1 6l1 1v8l1 1v11l1 1 .5 12.5 1-16 1 7 .5-11.5q-2-1-1-5l1.5-3.5.5 3.5-1 3h1l.5-1.5.5 6.5 1 1v22l-1 1v5l-1 1v3l-3 9-10.5 17.5-.5-2.5 3-9 1-11 1-1 1-16 1-1v-18l-1-1v-8l-1-1v-7q-2-1-1-5l3.5-3.5Z" />
  <path fill="#F4195D" stroke="#F4195D" d="m241.5 295 .5 2.5h-1l.5-2.5Z" />
</svg>